<?xml version="1.0" encoding="UTF-8"?>
<svg id="_レイヤー_2" data-name="レイヤー 2" xmlns="http://www.w3.org/2000/svg" viewBox="0 0 357.12 56.32">
  <g id="_レイヤー_1-2" data-name=" レイヤー 1">
    <g>
      <path d="M32.72,44.4H15.6l-3.44,10.96H0L18.24.96h12.4l18.24,54.4h-12.72l-3.44-10.96ZM18.56,34.4h11.2l-5.6-19.84-5.6,19.84Z"/>
      <path d="M55.04.96h21.84c12.8,0,18.4,4.4,18.4,14.16,0,6-2.16,9.76-7.44,11.6v.16c6.56,1.84,9.2,6.08,9.2,13.2,0,10.56-5.76,15.28-18.48,15.28h-23.52V.96ZM75.04,22.64c6.32,0,8.4-1.44,8.4-5.84s-1.92-5.68-7.76-5.68h-8.64v11.52h8ZM76.48,45.2c6.4,0,8.56-1.52,8.56-6.08s-2.4-6.32-9.52-6.32h-8.48v12.4h9.44Z"/>
      <path d="M104.16,34.16v-12C104.16,6.96,111.12,0,126.16,0s22,6.96,22,22.16v12c0,15.2-6.96,22.16-22,22.16s-22-6.96-22-22.16ZM136.16,34v-11.68c0-8.56-2.8-12-10-12s-10,3.44-10,12v11.68c0,8.56,2.8,12,10,12s10-3.44,10-12Z"/>
      <path d="M157.12,37.12V.96h12v35.76c0,6.8,2.32,9.28,8.56,9.28s8.56-2.48,8.56-9.28V.96h11.6v36.16c0,13.44-6.08,19.2-20.32,19.2s-20.4-5.76-20.4-19.2Z"/>
      <path d="M244.32,11.44h-14.56v43.92h-12V11.44h-14.56V.96h41.12v10.48Z"/>
      <path d="M268.88,37.12V.96h12v35.76c0,6.8,2.32,9.28,8.56,9.28s8.56-2.48,8.56-9.28V.96h11.6v36.16c0,13.44-6.08,19.2-20.32,19.2s-20.4-5.76-20.4-19.2Z"/>
      <path d="M316.72,38.96h11.68c0,5.28,2.96,7.6,8.8,7.6,5.28,0,7.92-1.92,7.92-5.84,0-4.48-2.88-6.4-10.96-7.68-12.08-1.92-16.64-6.4-16.64-16.32,0-11.12,6.8-16.72,19.76-16.72s19.12,5.44,19.12,16.88h-11.68c0-4.72-2.48-7.12-7.68-7.12s-7.52,2.16-7.52,5.76c0,4.08,2.8,5.92,10.48,7.04,12.72,1.84,17.12,6.72,17.12,16.96,0,11.28-6.64,16.8-20.24,16.8s-20.16-5.44-20.16-17.36h0Z"/>
    </g>
  </g>
</svg>